# xmcd
#
# Track frame offsets:
#	150
#	4562
#	19158
#	24998
#	43005
#	48013
#	67032
#	73937
#	88985
#	94162
#	108766
#	116342
#
# Disc length: 1751 seconds
#
# Revision: 1
# Processed by: cddbd v1.5.2PL0 Copyright (c) Steve Scherf et al.
# Submitted via: audiograbber 1.83.01
#
DISCID=9306d50c
DTITLE=Templeton Thompson - Songs from 7 Clinics
DYEAR=2012
DGENRE=Country
TTITLE0=Buckshot
TTITLE1=When I get that Pony RIde
TTITLE2=Cindy's Theme
TTITLE3=Follow You Anywhere
TTITLE4=Barbwire
TTITLE5=A Horse that can Fly
TTITLE6=Honyocker
TTITLE7=Lesson in there Somewhere
TTITLE8=Crusty
TTITLE9=Wishin' You Wings
TTITLE10=Blue Cowboy
TTITLE11=Believe
EXTD=
EXTT0=
EXTT1=
EXTT2=
EXTT3=
EXTT4=
EXTT5=
EXTT6=
EXTT7=
EXTT8=
EXTT9=
EXTT10=
EXTT11=
PLAYORDER=
